# File produced by Open Asset Import Library (http://www.assimp.sf.net)
# (assimp v5.2.0)

mtllib bot.mtl

# 130 vertex positions
v  -0.0366236754 -0.000211989041 -0.0170543827
v  -0.0365727246 -0.000629936811 -0.0171426442
v  -0.0464700274 -0.00499990396 -1.32439499e-08
v  -0.0341897495 -0.00231966889 -0.0212701131
v  -0.0339205265 -0.00212881481 -0.0217364114
v  -0.0232350137 -0.00499990396 -0.0402442776
v  -0.0336780995 -0.00187662803 -0.022156259
v  -0.0334694982 -0.00157043897 -0.0225176029
v  -0.0333006755 -0.00121912919 -0.0228100158
v  -0.0361358486 0.00172993005 -0.0178993531
v  -0.0363252498 0.00140001904 -0.0175712947
v  -0.0464700274 0.00499999989 -1.32439499e-08
v  -0.0364723019 0.00102981413 -0.0173166208
v  -0.0364723019 -0.00102964602 -0.0173166208
v  -0.0363252498 -0.00139991008 -0.0175712947
v  -0.0361358486 -0.00172976218 -0.0178993531
v  -0.0359095261 -0.00200990401 -0.0182913598
v  -0.0356527977 -0.00223222887 -0.0187360402
v  -0.0353730284 -0.00239029992 -0.019220585
v  -0.0350782983 -0.00247964775 -0.0197310727
v  -0.0347770751 -0.00249770796 -0.0202528127
v  -0.0344780274 -0.00244388497 -0.0207708012
v  -0.0365727246 0.000629986171 -0.0171426442
v  -0.0366236754 0.000212037936 -0.0170543827
v  -0.0366301015 8.38190317e-08 -0.0170433037
v  -0.0331005007 0.000422501937 -0.02315671
v  -0.033176478 0.000832879916 -0.023025116
v  -0.0232350137 0.00499999989 -0.0402442776
v  -0.0333006755 0.00121929683 -0.0228100158
v  -0.0334694982 0.00157060707 -0.0225176029
v  -0.0336780995 0.00187679613 -0.022156259
v  -0.0339205265 0.00212886394 -0.0217364114
v  -0.0341897495 0.00231983699 -0.0212701131
v  -0.0344780274 0.00244393409 -0.0207708012
v  -0.0347770751 0.00249775709 -0.0202528127
v  -0.0350782983 0.00247981609 -0.0197310727
v  -0.0353730284 0.00239052903 -0.019220585
v  -0.033176478 -0.000832831021 -0.023025116
v  -0.0331005007 -0.000422392972 -0.02315671
v  -0.0330749527 8.38190317e-08 -0.0232009869
v  -0.0356527977 0.00223239698 -0.0187360402
v  -0.0359095261 0.00201007212 -0.0182913598
v  0.0333798267 0.00140001904 -0.0226730015
v  0.0332328007 0.00102981413 -0.0229276773
v  0.023235051 0.00499999989 -0.0402442776
v  0.0331323519 0.000629986171 -0.0231016539
v  0.0331323519 -0.000629936811 -0.0231016539
v  0.0332328007 -0.00102964602 -0.0229276773
v  0.023235051 -0.00499990396 -0.0402442776
v  0.0333798267 -0.00139991008 -0.0226730015
v  0.0352270752 0.00244393409 -0.0194734987
v  0.0349280015 0.00249775709 -0.0199914761
v  0.0464701019 0.00499999989 -1.72171504e-08
v  0.0330814011 0.000212037936 -0.0231899004
v  0.0330750011 8.38190317e-08 -0.0232009906
v  0.0330814011 -0.000211989041 -0.0231899004
v  0.0343320481 0.00239052903 -0.0210237
v  0.0340523012 0.00223239698 -0.0215082578
v  0.0340523012 -0.00223222887 -0.0215082578
v  0.0343320481 -0.00239029992 -0.0210237
v  0.0464701019 -0.00499990396 -1.72171504e-08
v  0.0355153494 -0.00231966889 -0.0189741738
v  0.0357845761 -0.00212881481 -0.0185078904
v  0.036026977 -0.00187662803 -0.0180880222
v  0.0362355746 -0.00157043897 -0.0177266952
v  0.0364044271 -0.00121912919 -0.0174342655
v  0.0337955505 0.00201007212 -0.0219529327
v  0.0335692503 0.00172993005 -0.0223449357
v  0.0335692503 -0.00172976218 -0.0223449357
v  0.0337955505 -0.00200990401 -0.0219529327
v  0.0365285985 -0.000832831021 -0.0172191765
v  0.0366045758 -0.000422392972 -0.0170875806
v  0.0366301499 8.38190317e-08 -0.0170433056
v  0.0366045758 0.000422501937 -0.0170875806
v  0.0346267782 0.00247981609 -0.0205132253
v  0.0346267782 -0.00247964775 -0.0205132253
v  0.0349280015 -0.00249770796 -0.0199914761
v  0.0352270752 -0.00244388497 -0.0194734987
v  0.0362355746 0.00157060707 -0.0177266952
v  0.036026977 0.00187679613 -0.0180880222
v  0.0365285985 0.000832879916 -0.0172191765
v  0.0364044271 0.00121929683 -0.0174342655
v  0.0357845761 0.00212886394 -0.0185078904
v  0.0355153494 0.00231983699 -0.0189741738
v  -0.000748966529 0.00244393409 0.0402442515
v  -0.000150859341 0.00249775709 0.0402442515
v  -0.0232350081 0.00499999989 0.0402442515
v  0.00104105147 0.00239052903 0.0402442515
v  0.00160056783 0.00223239698 0.0402442515
v  0.0232350547 0.00499999989 0.0402442515
v  0.00211403659 0.00201007212 0.0402442515
v  0.00256669009 0.00172993005 0.0402442515
v  0.0029454974 0.00140001904 0.0402442515
v  0.00323957764 0.00102981413 0.0402442515
v  0.00344046252 0.000629986171 0.0402442515
v  0.00045159302 0.00247981609 0.0402442515
v  0.00344046252 -0.000629936811 0.0402442515
v  0.00323957764 -0.00102964602 0.0402442515
v  0.0232350547 -0.00499990396 0.0402442515
v  0.0029454974 -0.00139991008 0.0402442515
v  0.00256669009 -0.00172976218 0.0402442515
v  0.00354236737 0.000212037936 0.0402442515
v  0.00355517282 8.38190317e-08 0.0402442515
v  0.00354236737 -0.000211989041 0.0402442515
v  -0.00335203484 0.000832879916 0.0402442515
v  -0.00310366508 0.00121929683 0.0402442515
v  -0.00276600267 0.00157060707 0.0402442515
v  -0.00234876852 0.00187679613 0.0402442515
v  -0.00335203484 -0.000832831021 0.0402442515
v  -0.0232350081 -0.00499990396 0.0402442515
v  -0.00310366508 -0.00121912919 0.0402442515
v  -0.00276600267 -0.00157043897 0.0402442515
v  -0.003503985 -0.000422392972 0.0402442515
v  -0.00355511764 8.38190317e-08 0.0402442515
v  -0.003503985 0.000422501937 0.0402442515
v  -0.00186395925 0.00212886394 0.0402442515
v  -0.00132553431 0.00231983699 0.0402442515
v  0.00211403659 -0.00200990401 0.0402442515
v  0.00160056783 -0.00223222887 0.0402442515
v  0.00104105147 -0.00239029992 0.0402442515
v  -0.00132553431 -0.00231966889 0.0402442515
v  -0.00186395925 -0.00212881481 0.0402442515
v  -0.00234876852 -0.00187662803 0.0402442515
v  0.00045159302 -0.00247964775 0.0402442515
v  -0.000150859341 -0.00249770796 0.0402442515
v  -0.000748966529 -0.00244388497 0.0402442515
v  0.0250000004 0.00512566604 0.0250000004
v  -0.0250000004 0.00512566604 -0.0250000004
v  -0.0250000004 0.00512566604 0.0250000004
v  0.0250000004 0.00512566604 -0.0250000004

# 4 UV coordinates
vt 0 0 0
vt 1 0 0
vt 0 1 0
vt 1 1 0

# 264 vertex normals
vn -0.021650698 0.000683658989 -0.01249988
vn -0.0216505826 0.00105965103 -0.0125000626
vn -0.0216506105 0.000580319029 -0.0125000328
vn -0.02165059 0.000958961959 -0.0125000579
vn -0.0216505937 0.000958960969 -0.0125000579
vn -0.0216505937 0.000958961959 -0.0125000579
vn -0.0216506608 -0.000404494 -0.0124999555
vn -0.0216506608 -0.000404496997 -0.0124999527
vn -0.0216506626 -0.00050037395 -0.0124999452
vn -0.0216506552 0.000446200982 -0.0124999648
vn -0.0216506496 -0.000277402985 -0.012499975
vn -0.021650631 0.000201977993 -0.0125000104
vn -0.0216506608 -0.00022390201 -0.0124999629
vn -0.0216506552 -0.000223900002 -0.0124999648
vn -0.0216506775 0.000566765957 -0.0124999247
vn -0.0216506701 0.000470889994 -0.0124999397
vn -0.0216506757 0.000614704972 -0.0124999247
vn -0.0216506645 0.000415648974 -0.0124999424
vn -0.0216506645 0.000415650982 -0.012499948
vn -0.0216506552 0.000223897994 -0.0124999676
vn -0.0216506179 -0.000382171012 -0.0125000272
vn -0.0216506179 -0.000382172002 -0.0125000272
vn -0.0216506198 -0.000382172002 -0.0125000272
vn -0.0216506086 -0.000664522988 -0.0125000402
vn -0.0216506198 -0.000472770975 -0.0125000197
vn -0.0216505956 -0.000808335957 -0.0125000579
vn -0.0216506254 0.00152081205 -0.0124999573
vn -0.0216506012 -0.000825815951 -0.0125000477
vn -0.0216506012 -0.000825827941 -0.012500043
vn -0.0216506012 -0.000825839001 -0.012500043
vn -0.0216506328 -0.000228118981 -0.0125000048
vn -0.0216506161 -0.000563685957 -0.0125000328
vn -0.0216506273 -0.000323995977 -0.0125000123
vn -0.0216506235 -0.000327030983 -0.0125000225
vn -0.0216506198 -0.000470848987 -0.0125000197
vn -0.0216506235 -0.000327036978 -0.0125000225
vn -0.0216506403 2.5629799e-05 -0.0124999909
vn -0.0216506403 -0.00320309401 -0.0124997329
vn -0.0216506403 -0.00320309401 -0.0124997376
vn -0.0216506459 -0.00315517094 -0.0124997376
vn -0.0216505881 0.00105339196 -0.0125000598
vn -0.0216505881 0.00105339196 -0.0125000551
vn -0.02165059 0.00105339196 -0.0125000579
vn -0.0216506757 -0.000566767005 -0.0124999275
vn -0.0216506757 -0.000566767936 -0.0124999275
vn -0.021650672 -0.000566767936 -0.0124999275
vn -0.021650672 -0.000668302993 -0.0124999322
vn -0.0216506384 0 -0.0124999983
vn -0.0216507781 0.00257104589 -0.0124995904
vn -0.0216507781 0.00252306391 -0.0124995951
vn -0.0216507744 0.00257104589 -0.0124995923
vn -0.0216503777 -0.00251120306 -0.0125002954
vn -0.0216503702 -0.00251126196 -0.0125003001
vn -0.0216503758 -0.00251126196 -0.0125002954
vn -0.0216506552 -0.000338943006 -0.0124999648
vn -0.0216506496 -3.37481993e-06 -0.012499975
vn -0.0216506403 9.9528901e-05 -0.0124999946
vn -0.0216506459 0.000195400993 -0.0124999834
vn -0.0216506552 0.000291278993 -0.0124999648
vn -0.0216506384 -0.000446136983 -0.0124999946
vn -0.0216506701 0.000593692996 -0.012499935
vn -0.0216506682 0.000641629973 -0.012499935
vn -0.0216506645 0.000497813977 -0.0124999424
vn -0.02165059 -0.000959189027 -0.0125000579
vn -0.0216505937 -0.000959189027 -0.0125000579
vn -0.0216505937 -0.000959189958 -0.0125000579
vn -0.0216506328 -0.000280721986 -0.0125000076
vn -0.021650631 -0.000376597978 -0.0125000104
vn -0.0216506328 -0.000280720997 -0.0125000048
vn -0.02165059 -0.00097915798 -0.0125000551
vn -0.0216505937 -0.000979156001 -0.0125000551
vn -0.02165059 -0.000979161006 -0.0125000579
vn -0.0216506422 0.00315517094 -0.0124997403
vn -0.0216506459 0.00315517094 -0.0124997376
vn -0.0216506459 0.00315517094 -0.0124997329
vn -0.0216506422 -2.5629899e-05 -0.0124999927
vn -0.0216506273 0.000327021 -0.0125000151
vn -0.0216506235 0.000374959985 -0.0125000197
vn -0.0216506254 0.000374958996 -0.0125000197
vn -0.0216506161 0.000497294008 -0.01250003
vn -0.0216506161 0.000545238028 -0.01250003
vn -0.0216506179 0.000497295987 -0.0125000272
vn -0.0216506682 -0.000418793992 -0.0124999452
vn -0.0216506645 -0.00037085099 -0.012499948
vn -0.0216506701 -0.000466728961 -0.012499935
vn -0.0216506422 0.000210514991 -0.0124999909
vn -0.0216506496 0 -0.0124999778
vn -0.0216506235 -0.000279828993 -0.0125000225
vn -0.0216506235 -0.000279819011 -0.0125000225
vn -0.021650631 -0.000183960001 -0.0125000123
vn -0.0216506384 -5.0900002e-05 -0.0124999946
vn -0.0216506477 9.29230009e-05 -0.0124999853
vn -0.0216506384 -5.09059973e-05 -0.0124999946
vn -0.0216505975 0.000823814014 -0.0125000477
vn -0.0216506012 0.000871744996 -0.0125000449
vn -0.0216506012 0.000967613014 -0.012500043
vn -0.0216506794 -0.00152081205 -0.0124998651
vn -0.0216505937 0.000830757024 -0.0125000598
vn -0.021650603 0.000686943007 -0.0125000477
vn -0.0216506012 0.000686943007 -0.0125000477
vn 0.0216506161 -0.000346949993 -0.0125000374
vn 0.0216506161 -0.000299006992 -0.0125000346
vn 0.0216506161 -0.000346952991 -0.0125000346
vn 0.0216506533 0.000244723982 -0.012499975
vn 0.0216506533 0.000244722003 -0.0124999722
vn 0.021650603 -0.000426401995 -0.0125000579
vn 0.0216506179 0.000339003978 -0.0125000328
vn 0.0216506235 -2.82296987e-05 -0.0125000197
vn 0.0216506198 0.000211457984 -0.01250003
vn 0.0216506254 6.76445998e-05 -0.0125000225
vn 0.0216506552 -0.000727233943 -0.0124999555
vn 0.0216506608 -0.000727253966 -0.0124999499
vn 0.0216506608 -0.000679280958 -0.0124999499
vn 0.0216506477 -0.000170915999 -0.0124999853
vn 0.0216505956 -0.000506462995 -0.0125000672
vn 0.0216506943 0.000738514995 -0.0124998828
vn 0.0216506328 0 -0.0125000048
vn 0.0216507409 -0.000738513947 -0.0124998102
vn 0.0216506105 0.000165574995 -0.0125000477
vn 0.0216506477 0.000456803973 -0.0124999704
vn 0.0216506477 0.000360930979 -0.0124999797
vn 0.0216506477 0.000360932987 -0.0124999797
vn 0.0216506496 -0.000395961979 -0.0124999778
vn 0.0216506552 -0.000491834013 -0.0124999601
vn 0.0216506477 -0.000395956973 -0.0124999778
vn 0.0216505639 -0.00130790402 -0.0125000821
vn 0.0216505639 -0.00135582604 -0.0125000821
vn 0.0216506757 0.001098632 -0.0124999024
vn 0.0216506179 -0.000274257996 -0.0125000328
vn 0.0216506179 -0.000274260994 -0.01250003
vn 0.0216506179 -0.000226321004 -0.0125000328
vn 0.0216506198 -0.000215971988 -0.0125000272
vn 0.021650631 -0.000120093995 -0.0125000179
vn 0.0216506198 -0.000215970984 -0.0125000272
vn 0.0216506105 -0.000522946939 -0.012500043
vn 0.0216506105 -0.000475011009 -0.0125000346
vn 0.0216506086 -0.00066676503 -0.012500043
vn 0.0216506403 8.14350933e-05 -0.0124999946
vn 0.0216506459 0.000225248994 -0.0124999853
vn 0.0216506384 8.1438593e-05 -0.0124999983
vn 0.0216506552 0.000423746998 -0.0124999648
vn 0.0216506459 0.000231997983 -0.0124999834
vn 0.0216506477 -0.000184731005 -0.0124999797
vn 0.0216506477 -0.000184733988 -0.0124999797
vn 0.0216506477 -0.000136789997 -0.0124999778
vn 0.0216506384 -3.34998986e-05 -0.012500003
vn 0.0216506403 -8.1441096e-05 -0.0124999946
vn 0.0216506384 -3.34998986e-05 -0.0125000002
vn 0.0216506105 0.000475025969 -0.012500043
vn 0.0216506086 0.000522965973 -0.0125000449
vn 0.0216506086 0.000570905977 -0.0125000449
vn 0.0216506347 1.26607001e-05 -0.0125000002
vn 0.0216506496 0.000204409997 -0.0124999778
vn 0.0216506235 7.28195009e-05 -0.0125000272
vn 0.021650631 0 -0.0125000123
vn 0.0216506775 -0.00118344999 -0.0124998903
vn 0.0216506701 -0.000512350001 -0.0124999303
vn 0.0216506012 0.000441743992 -0.0125000598
vn 0.021650603 0.000345865992 -0.0125000523
vn 0.0216505956 0.000537623942 -0.0125000654
vn 0.021650631 -0.000256298983 -0.0125000076
vn 0.0216506906 0.00289761997 -0.0124996975
vn 0.0216505509 -0.00075408601 -0.0125001362
vn 0.0216505006 0.000846368028 -0.0125002181
vn 0.0216506906 -0.0028975599 -0.0124996956
vn 0.021650631 0.000256297993 -0.0125000123
vn 0.0216506608 0.000750351988 -0.012499948
vn 0.0216506552 0.000750377949 -0.0124999573
vn 0.0216506533 0.000750366016 -0.0124999601
vn 0.0216506422 0.000286580995 -0.0124999909
vn 0.0216506459 0.000286579976 -0.0124999871
vn 0.0216506422 0.000286579976 -0.0124999909
vn 0.0216506179 0.000178375005 -0.0125000272
vn 0.0216506235 0.000178376999 -0.0125000225
vn 0.0216506235 -8.47355986e-05 -0.0125000225
vn 0.0216506943 -0.000663751969 -0.0124998856
vn 0.0216506273 7.19539021e-05 -0.0125000123
vn 0.0216506254 7.19535019e-05 -0.0125000179
vn 0.021650631 7.19536984e-05 -0.0125000123
vn 0.0216506552 -0.001098871 -0.0124999397
vn 0.0216505639 0.00130736805 -0.0125000849
vn 0.0216505527 0.00154709804 -0.0125000877
vn 0.0216506552 -0.000574838021 -0.0124999601
vn 0.0216506533 -0.000478963979 -0.0124999704
vn 0.0216506533 -0.000478966977 -0.0124999648
vn 7.18950091e-08 0.00098785595 0.0249999892
vn 6.64592505e-08 0.000987846986 0.0249999892
vn 6.93194977e-08 0.000987833017 0.0249999892
vn 0 -4.88581973e-05 0.0250000004
vn 0 -4.88518999e-05 0.0250000004
vn 0 -4.88591977e-05 0.0250000004
vn 0 -1.34868997e-05 0.0250000004
vn 0 -1.34871007e-05 0.0250000004
vn 0 -1.34839993e-05 0.0250000004
vn 0 0.000333058997 0.0250000004
vn 0 0 0.0250000004
vn 0 0.000119539996 0.0250000004
vn 0 -0.000169501989 0.0250000004
vn -9.88385054e-08 0.00148892403 0.0249999743
vn -1.02302998e-07 0.00148892403 0.0249999743
vn -1.00541243e-07 0.00148892403 0.0249999743
vn 0 -3.12226007e-06 0.0250000004
vn 0 -3.12193993e-06 0.0250000004
vn 0 -3.12139014e-06 0.0250000004
vn 9.87287585e-09 0.000216028988 0.0250000004
vn 8.82462547e-09 0.000216027998 0.0250000004
vn 9.35110034e-09 0.000216028988 0.0250000004
vn 0 0.000346754008 0.0250000004
vn 0 0.000108390996 0.0250000004
vn 0 0.000108416993 0.0250000004
vn 0 0.000108401997 0.0250000004
vn 8.02602571e-08 -0.000567652984 0.0249999966
vn 8.15757559e-08 -0.000567881973 0.0249999966
vn 8.31735036e-08 -0.000567400944 0.0249999966
vn 8.34315017e-08 0.000567641982 0.0249999966
vn 7.44475059e-08 0.000567389012 0.0249999966
vn 8.07022502e-08 0.000567870971 0.0249999966
vn 0 -0.000116149997 0.0250000004
vn 0 -0.000116160998 0.0250000004
vn 0 -0.000116142997 0.0250000004
vn 0 0.000323446991 0.0250000004
vn 0 -0.000314593985 0.0250000004
vn 3.9284501e-08 -0.000335564982 0.0250000004
vn 3.95632505e-08 -0.000335564982 0.0250000004
vn 3.93982518e-08 -0.000335564982 0.0250000004
vn 3.20140003e-08 -0.000342313986 0.0250000004
vn 3.16174997e-08 -0.000342322979 0.0250000004
vn 3.1249499e-08 -0.000342317013 0.0250000004
vn 0 -3.59708974e-05 0.0250000004
vn 0 -3.59526966e-05 0.0250000004
vn 0 -3.59924998e-05 0.0250000004
vn 0 3.59702972e-05 0.0250000004
vn 0 3.59920996e-05 0.0250000004
vn 0 3.59521e-05 0.0250000004
vn 0 0.000360126985 0.0250000004
vn 0 -0.000231757993 0.0250000004
vn 0 6.26663023e-05 0.0250000004
vn 0 6.26693e-05 0.0250000004
vn 0 6.26670953e-05 0.0250000004
vn 0 -8.23892988e-05 0.0250000004
vn 0 -8.23919909e-05 0.0250000004
vn 0 -8.23891969e-05 0.0250000004
vn 0 6.2072002e-05 0.0250000004
vn 0 6.20699939e-05 0.0250000004
vn 0 6.20716964e-05 0.0250000004
vn -2.24430252e-08 0.000190982988 0.0250000004
vn -2.32352502e-08 0.000190982988 0.0250000004
vn -2.24864021e-08 0.000190981998 0.0250000004
vn 0 0.000314592995 0.0250000004
vn -1.01331501e-07 -0.00148892403 0.0249999743
vn -1.00285e-07 -0.00148886396 0.0249999743
vn -1.01479998e-07 -0.00148886396 0.0249999743
vn 6.95910032e-08 -0.000932088995 0.0249999892
vn 6.43817515e-08 -0.000932099996 0.0249999892
vn 6.8917501e-08 -0.00093210896 0.0249999892
vn 0 -6.24032036e-05 0.0250000004
vn 0 -6.2403793e-05 0.0250000004
vn 0 -6.24060995e-05 0.0250000004
vn -0.0216506403 0 0.0124999927
vn 0 0 -0.0250000004
vn 0.0216506347 0 0.012500003
vn 0.0216506328 0 0.012500003
vn 0 -1 0
vn 0 1 0

# Mesh 'Plane-mesh' with 140 faces
g Plane-mesh
usemtl Material.001
f  1/1/1 2/1/1 3/1/1
f  4/1/2 5/1/3 6/1/2
f  5/1/4 7/1/5 6/1/6
f  6/1/7 7/1/8 8/1/9
f  6/1/10 8/1/10 9/1/10
f  10/1/11 11/1/11 12/1/12
f  12/1/13 11/1/14 13/1/13
f  2/1/15 14/1/16 3/1/17
f  3/1/18 14/1/19 15/1/20
f  3/1/21 15/1/22 16/1/23
f  16/1/24 17/1/25 3/1/26
f  3/1/27 17/1/27 18/1/27
f  3/1/28 18/1/29 19/1/30
f  19/1/31 20/1/32 3/1/33
f  3/1/34 20/1/35 21/1/36
f  3/1/37 21/1/37 6/1/37
f  6/1/38 21/1/39 22/1/40
f  6/1/41 22/1/42 4/1/43
f  13/1/44 23/1/45 12/1/46
f  12/1/47 23/1/47 24/1/47
f  12/1/48 24/1/48 3/1/48
f  3/1/49 24/1/50 25/1/51
f  25/1/52 1/1/53 3/1/54
f  26/1/55 27/1/55 28/1/56
f  28/1/57 27/1/58 29/1/59
f  28/1/60 29/1/60 30/1/60
f  30/1/61 31/1/62 28/1/63
f  28/1/64 31/1/65 32/1/66
f  28/1/67 32/1/68 33/1/69
f  33/1/70 34/1/71 28/1/72
f  28/1/73 34/1/74 35/1/75
f  28/1/76 35/1/76 12/1/76
f  12/1/77 35/1/78 36/1/79
f  12/1/80 36/1/81 37/1/82
f  9/1/83 38/1/84 6/1/85
f  6/1/86 38/1/86 39/1/86
f  6/1/87 39/1/87 28/1/87
f  28/1/88 39/1/89 40/1/90
f  28/1/91 40/1/92 26/1/93
f  37/1/94 41/1/95 12/1/96
f  12/1/97 41/1/97 42/1/97
f  12/1/98 42/1/99 10/1/100
f  43/1/101 44/1/102 45/1/103
f  45/1/104 44/1/105 46/1/106
f  47/1/107 48/1/107 49/1/107
f  49/1/108 48/1/109 50/1/110
f  51/1/111 52/1/112 53/1/113
f  46/1/114 54/1/115 45/1/114
f  45/1/116 54/1/116 55/1/116
f  45/1/117 55/1/117 49/1/117
f  49/1/118 55/1/118 56/1/118
f  49/1/119 56/1/119 47/1/119
f  57/1/120 58/1/121 45/1/122
f  49/1/123 59/1/124 60/1/125
f  61/1/126 62/1/127 63/1/127
f  63/1/128 64/1/128 61/1/128
f  61/1/129 64/1/130 65/1/131
f  61/1/132 65/1/133 66/1/134
f  58/1/135 67/1/136 45/1/137
f  45/1/138 67/1/139 68/1/140
f  45/1/141 68/1/141 43/1/142
f  50/1/143 69/1/144 49/1/145
f  49/1/146 69/1/147 70/1/148
f  49/1/149 70/1/150 59/1/151
f  66/1/152 71/1/153 61/1/153
f  61/1/154 71/1/154 72/1/154
f  61/1/155 72/1/155 53/1/155
f  53/1/156 72/1/157 73/1/156
f  53/1/158 73/1/159 74/1/160
f  53/1/161 52/1/161 45/1/161
f  45/1/162 52/1/162 75/1/162
f  45/1/163 75/1/163 57/1/163
f  60/1/164 76/1/164 49/1/164
f  49/1/165 76/1/165 77/1/165
f  49/1/166 77/1/166 61/1/166
f  61/1/167 77/1/168 78/1/169
f  61/1/170 78/1/171 62/1/172
f  53/1/173 79/1/174 80/1/174
f  74/1/175 81/1/175 53/1/175
f  53/1/176 81/1/176 82/1/176
f  53/1/177 82/1/178 79/1/179
f  80/1/180 83/1/180 53/1/180
f  53/1/181 83/1/181 84/1/182
f  53/1/183 84/1/184 51/1/185
f  85/1/186 86/1/187 87/1/188
f  88/1/189 89/1/190 90/1/191
f  90/1/192 89/1/193 91/1/194
f  90/1/195 91/1/195 92/1/195
f  92/1/196 93/1/196 90/1/196
f  90/1/197 93/1/197 94/1/197
f  90/1/198 94/1/198 95/1/198
f  87/1/196 86/1/196 90/1/196
f  90/1/199 86/1/200 96/1/201
f  90/1/202 96/1/203 88/1/204
f  97/1/196 98/1/196 99/1/196
f  99/1/205 98/1/206 100/1/207
f  99/1/208 100/1/208 101/1/208
f  95/1/209 102/1/210 90/1/211
f  90/1/212 102/1/213 103/1/214
f  90/1/196 103/1/196 99/1/196
f  99/1/215 103/1/216 104/1/217
f  99/1/218 104/1/219 97/1/220
f  105/1/196 106/1/196 87/1/196
f  87/1/221 106/1/221 107/1/221
f  87/1/222 107/1/222 108/1/222
f  109/1/196 110/1/196 111/1/196
f  111/1/223 110/1/224 112/1/225
f  109/1/226 113/1/227 110/1/228
f  110/1/229 113/1/230 114/1/231
f  110/1/196 114/1/196 87/1/196
f  87/1/232 114/1/233 115/1/234
f  87/1/235 115/1/235 105/1/235
f  108/1/196 116/1/196 87/1/196
f  87/1/236 116/1/236 117/1/236
f  87/1/237 117/1/238 85/1/239
f  101/1/196 118/1/196 99/1/196
f  99/1/240 118/1/241 119/1/242
f  99/1/243 119/1/244 120/1/245
f  121/1/196 122/1/196 110/1/196
f  110/1/246 122/1/247 123/1/248
f  110/1/249 123/1/249 112/1/249
f  120/1/196 124/1/196 99/1/196
f  99/1/250 124/1/251 125/1/252
f  99/1/196 125/1/196 110/1/196
f  110/1/253 125/1/254 126/1/255
f  110/1/256 126/1/257 121/1/258
f  12/1/259 3/1/259 87/1/259
f  87/1/259 3/1/259 110/1/259
f  45/1/260 49/1/260 28/1/260
f  28/1/260 49/1/260 6/1/260
f  90/1/261 99/1/261 53/1/261
f  53/1/262 99/1/262 61/1/262
f  6/1/263 49/1/263 3/1/263
f  3/1/263 49/1/263 61/1/263
f  3/1/263 61/1/263 110/1/263
f  110/1/263 61/1/263 99/1/263
f  45/1/264 28/1/264 53/1/264
f  53/1/264 28/1/264 12/1/264
f  53/1/264 12/1/264 90/1/264
f  90/1/264 12/1/264 87/1/264

# Mesh 'Plane-mesh' with 2 faces
g Plane-mesh
usemtl Material.002
f  127/2/264 128/3/264 129/1/264
f  127/2/264 130/4/264 128/3/264

